<svg xmlns="http://www.w3.org/2000/svg" xmlns:xlink="http://www.w3.org/1999/xlink" contentStyleType="text/css" data-diagram-type="DESCRIPTION" height="2003px" preserveAspectRatio="none" style="width:965px;height:2003px;background:#FFFFFF;" version="1.1" viewBox="0 0 965 2003" width="965px" zoomAndPan="magnify"><defs/><g><!--cluster AvoLaptop--><g class="cluster" data-entity="AvoLaptop" data-source-line="24" data-uid="ent0007" id="cluster_AvoLaptop"><rect fill="none" height="1990" rx="2.5" ry="2.5" style="stroke:#181818;stroke-width:1;" width="617" x="342" y="7"/><text fill="#000000" font-family="sans-serif" font-size="14" font-weight="bold" lengthAdjust="spacing" textLength="84.3008" x="608.3496" y="31.9951">AvoLaptop</text></g><!--cluster Casi d'uso comuni--><g class="cluster" data-entity="Casi d.uso comuni" data-source-line="26" data-uid="ent0008" id="cluster_Casi d.uso comuni"><rect fill="none" height="443" rx="2.5" ry="2.5" style="stroke:#181818;stroke-width:1;" width="237" x="366" y="445"/><text fill="#000000" font-family="sans-serif" font-size="14" font-weight="bold" lengthAdjust="spacing" textLength="142.0645" x="413.4678" y="469.9951">Casi d'uso comuni</text></g><!--cluster Prenotazione Generale--><g class="cluster" data-entity="Prenotazione Generale" data-source-line="33" data-uid="ent0013" id="cluster_Prenotazione Generale"><rect fill="none" height="351" rx="2.5" ry="2.5" style="stroke:#181818;stroke-width:1;" width="558.5" x="376" y="70"/><text fill="#000000" font-family="sans-serif" font-size="14" font-weight="bold" lengthAdjust="spacing" textLength="180.3799" x="565.0601" y="94.9951">Prenotazione Generale</text></g><!--cluster Gestione Generale--><g class="cluster" data-entity="Gestione Generale" data-source-line="40" data-uid="ent0018" id="cluster_Gestione Generale"><rect fill="none" height="1061" rx="2.5" ry="2.5" style="stroke:#181818;stroke-width:1;" width="543" x="392" y="912"/><text fill="#000000" font-family="sans-serif" font-size="14" font-weight="bold" lengthAdjust="spacing" textLength="145.8584" x="590.5708" y="936.9951">Gestione Generale</text></g><!--entity UC1--><g class="entity" data-entity="UC1" data-source-line="27" data-uid="ent0009" id="entity_UC1"><ellipse cx="484.3497" cy="520.0761" fill="#FFFFE0" rx="57.3497" ry="20.0761" style="stroke:#000000;stroke-width:0.5;"/><text fill="#000000" font-family="sans-serif" font-size="14" lengthAdjust="spacing" textLength="95.5254" x="436.587" y="524.7245">Registrazione</text></g><!--entity UC2--><g class="entity" data-entity="UC2" data-source-line="28" data-uid="ent0010" id="entity_UC2"><ellipse cx="484.5413" cy="853.9158" fill="#FFFFE0" rx="26.0413" ry="17.4158" style="stroke:#000000;stroke-width:0.5;"/><text fill="#000000" font-family="sans-serif" font-size="14" lengthAdjust="spacing" textLength="38.0146" x="465.534" y="858.5642">Login</text></g><!--entity UC3--><g class="entity" data-entity="UC3" data-source-line="29" data-uid="ent0011" id="entity_UC3"><ellipse cx="484.5411" cy="724.1944" fill="#FFFFE0" rx="31.5411" ry="18.1944" style="stroke:#000000;stroke-width:0.5;"/><text fill="#000000" font-family="sans-serif" font-size="14" lengthAdjust="spacing" textLength="48.1797" x="460.4512" y="728.8429">Logout</text></g><!--entity UC4--><g class="entity" data-entity="UC4" data-source-line="30" data-uid="ent0012" id="entity_UC4"><ellipse cx="484.5202" cy="622.904" fill="#FFFFE0" rx="102.5202" ry="22.904" style="stroke:#000000;stroke-width:0.5;"/><text fill="#000000" font-family="sans-serif" font-size="14" lengthAdjust="spacing" textLength="181.5967" x="393.7218" y="627.5525">Visualizzare PC disponibili</text></g><!--entity UCTEACHER--><g class="entity" data-entity="UCTEACHER" data-source-line="34" data-uid="ent0014" id="entity_UCTEACHER"><ellipse cx="484.5413" cy="381.0715" fill="#FFFFE0" rx="92.5413" ry="21.0715" style="stroke:#000000;stroke-width:0.5;"/><text fill="#000000" font-family="sans-serif" font-size="14" lengthAdjust="spacing" textLength="159.8447" x="404.619" y="385.72">Prenotazione Generale</text></g><!--entity UC6--><g class="entity" data-entity="UC6" data-source-line="35" data-uid="ent0015" id="entity_UC6"><ellipse cx="793.6529" cy="151.0306" fill="#FFFFE0" rx="115.6529" ry="25.5306" style="stroke:#000000;stroke-width:0.5;"/><text fill="#000000" font-family="sans-serif" font-size="14" lengthAdjust="spacing" textLength="210.0547" x="688.6255" y="155.679">Prenotare PC per fascia oraria</text></g><!--entity UC7--><g class="entity" data-entity="UC7" data-source-line="36" data-uid="ent0016" id="entity_UC7"><ellipse cx="793.6078" cy="376.9216" fill="#FFFFE0" rx="125.1078" ry="27.4216" style="stroke:#000000;stroke-width:0.5;"/><text fill="#000000" font-family="sans-serif" font-size="14" lengthAdjust="spacing" textLength="230.2207" x="678.4975" y="381.57">Visualizzare proprie prenotazioni</text></g><!--entity UC8--><g class="entity" data-entity="UC8" data-source-line="37" data-uid="ent0017" id="entity_UC8"><ellipse cx="793.4574" cy="262.7915" fill="#FFFFE0" rx="119.4574" ry="26.2915" style="stroke:#000000;stroke-width:0.5;"/><text fill="#000000" font-family="sans-serif" font-size="14" lengthAdjust="spacing" textLength="218.1963" x="684.3593" y="267.4399">Annullare propria prenotazione</text></g><!--entity UCADMIN--><g class="entity" data-entity="UCADMIN" data-source-line="41" data-uid="ent0019" id="entity_UCADMIN"><ellipse cx="484.4362" cy="1357.2201" fill="#FFFFE0" rx="76.4362" ry="20.7201" style="stroke:#000000;stroke-width:0.5;"/><text fill="#000000" font-family="sans-serif" font-size="14" lengthAdjust="spacing" textLength="130.4229" x="419.2248" y="1361.8685">Gestione Generale</text></g><!--entity UC9--><g class="entity" data-entity="UC9" data-source-line="42" data-uid="ent0020" id="entity_UC9"><ellipse cx="793.5029" cy="1196.2006" fill="#FFFFE0" rx="119.0029" ry="26.2006" style="stroke:#000000;stroke-width:0.5;"/><text fill="#000000" font-family="sans-serif" font-size="14" lengthAdjust="spacing" textLength="217.2256" x="684.8901" y="1200.849">Approvare registrazione admin</text></g><!--entity UC10--><g class="entity" data-entity="UC10" data-source-line="43" data-uid="ent0021" id="entity_UC10"><ellipse cx="793.4873" cy="1089.2083" fill="#FFFFE0" rx="75.9873" ry="20.7083" style="stroke:#000000;stroke-width:0.5;"/><text fill="#000000" font-family="sans-serif" font-size="14" lengthAdjust="spacing" textLength="129.6025" x="728.6861" y="1093.8568">Aggiungere laptop</text></g><!--entity UC11--><g class="entity" data-entity="UC11" data-source-line="44" data-uid="ent0022" id="entity_UC11"><ellipse cx="793.626" cy="988.0872" fill="#FFFFE0" rx="71.626" ry="20.5872" style="stroke:#000000;stroke-width:0.5;"/><text fill="#000000" font-family="sans-serif" font-size="14" lengthAdjust="spacing" textLength="121.6318" x="732.8101" y="992.7357">Modificare laptop</text></g><!--entity UC12--><g class="entity" data-entity="UC12" data-source-line="45" data-uid="ent0023" id="entity_UC12"><ellipse cx="793.3453" cy="1935.9708" fill="#FFFFE0" rx="67.8453" ry="20.4708" style="stroke:#000000;stroke-width:0.5;"/><text fill="#000000" font-family="sans-serif" font-size="14" lengthAdjust="spacing" textLength="114.7207" x="735.9849" y="1940.6193">Eliminare laptop</text></g><!--entity UC13--><g class="entity" data-entity="UC13" data-source-line="46" data-uid="ent0024" id="entity_UC13"><ellipse cx="793.5746" cy="1835.1841" fill="#FFFFE0" rx="75.0746" ry="20.6841" style="stroke:#000000;stroke-width:0.5;"/><text fill="#000000" font-family="sans-serif" font-size="14" lengthAdjust="spacing" textLength="127.9346" x="729.6073" y="1839.8325">Aggiungere locker</text></g><!--entity UC14--><g class="entity" data-entity="UC14" data-source-line="47" data-uid="ent0025" id="entity_UC14"><ellipse cx="793.7135" cy="1734.0602" fill="#FFFFE0" rx="70.7135" ry="20.5602" style="stroke:#000000;stroke-width:0.5;"/><text fill="#000000" font-family="sans-serif" font-size="14" lengthAdjust="spacing" textLength="119.9639" x="733.7316" y="1738.7086">Modificare locker</text></g><!--entity UC15--><g class="entity" data-entity="UC15" data-source-line="48" data-uid="ent0026" id="entity_UC15"><ellipse cx="793.4329" cy="1632.9409" fill="#FFFFE0" rx="66.9329" ry="20.4409" style="stroke:#000000;stroke-width:0.5;"/><text fill="#000000" font-family="sans-serif" font-size="14" lengthAdjust="spacing" textLength="113.0527" x="736.9066" y="1637.5894">Eliminare locker</text></g><!--entity UC16--><g class="entity" data-entity="UC16" data-source-line="49" data-uid="ent0027" id="entity_UC16"><ellipse cx="793.3688" cy="1524.9738" fill="#FFFFE0" rx="125.3688" ry="27.4738" style="stroke:#000000;stroke-width:0.5;"/><text fill="#000000" font-family="sans-serif" font-size="14" lengthAdjust="spacing" textLength="230.7744" x="677.9816" y="1529.6222">Visualizzare tutte le prenotazioni</text></g><!--entity UC17--><g class="entity" data-entity="UC17" data-source-line="50" data-uid="ent0028" id="entity_UC17"><ellipse cx="793.557" cy="1409.8114" fill="#FFFFE0" rx="124.557" ry="27.3114" style="stroke:#000000;stroke-width:0.5;"/><text fill="#000000" font-family="sans-serif" font-size="14" lengthAdjust="spacing" textLength="229.0518" x="679.0311" y="1414.4598">Annullare qualsiasi prenotazione</text></g><!--entity UC18--><g class="entity" data-entity="UC18" data-source-line="51" data-uid="ent0029" id="entity_UC18"><ellipse cx="793.7083" cy="1302.0917" fill="#FFFFE0" rx="57.7083" ry="20.0917" style="stroke:#000000;stroke-width:0.5;"/><text fill="#000000" font-family="sans-serif" font-size="14" lengthAdjust="spacing" textLength="96.1816" x="745.6175" y="1306.7401">Gestire utenti</text></g><!--entity User--><g class="entity" data-entity="User" data-source-line="17" data-uid="ent0002" id="entity_User"><ellipse cx="179.9551" cy="623.5" fill="#F1F1F1" rx="8" ry="8" style="stroke:#181818;stroke-width:0.5;"/><path d="M179.9551,631.5 L179.9551,658.5 M166.9551,639.5 L192.9551,639.5 M179.9551,658.5 L166.9551,673.5 M179.9551,658.5 L192.9551,673.5" fill="none" style="stroke:#181818;stroke-width:0.5;"/><text fill="#000000" font-family="sans-serif" font-size="14" lengthAdjust="spacing" textLength="31.9102" x="164" y="697.9951">User</text></g><!--entity Teacher--><g class="entity" data-entity="Teacher" data-source-line="18" data-uid="ent0003" id="entity_Teacher"><ellipse cx="34.3418" cy="527.5" fill="#F1F1F1" rx="8" ry="8" style="stroke:#181818;stroke-width:0.5;"/><path d="M34.3418,535.5 L34.3418,562.5 M21.3418,543.5 L47.3418,543.5 M34.3418,562.5 L21.3418,577.5 M34.3418,562.5 L47.3418,577.5" fill="none" style="stroke:#181818;stroke-width:0.5;"/><text fill="#000000" font-family="sans-serif" font-size="14" lengthAdjust="spacing" textLength="56.6836" x="6" y="601.9951">Teacher</text></g><!--entity Admin--><g class="entity" data-entity="Admin" data-source-line="19" data-uid="ent0004" id="entity_Admin"><ellipse cx="34.4321" cy="753.5" fill="#F1F1F1" rx="8" ry="8" style="stroke:#181818;stroke-width:0.5;"/><path d="M34.4321,761.5 L34.4321,788.5 M21.4321,769.5 L47.4321,769.5 M34.4321,788.5 L21.4321,803.5 M34.4321,788.5 L47.4321,803.5" fill="none" style="stroke:#181818;stroke-width:0.5;"/><text fill="#000000" font-family="sans-serif" font-size="14" lengthAdjust="spacing" textLength="44.8643" x="12" y="827.9951">Admin</text></g><!--link Teacher to User--><g class="link" data-entity-1="Teacher" data-entity-2="User" data-source-line="21" data-uid="lnk5" id="link_Teacher_User"><path d="M73.2,592.22 C98.61,609.22 116.4796,621.1706 138.7796,636.0906" fill="none" id="Teacher-to-User" style="stroke:#181818;stroke-width:1;"/><polygon fill="none" points="153.74,646.1,142.1161,631.1038,135.4432,641.0774,153.74,646.1" style="stroke:#181818;stroke-width:1;"/></g><!--link Admin to User--><g class="link" data-entity-1="Admin" data-entity-2="User" data-source-line="22" data-uid="lnk6" id="link_Admin_User"><path d="M67.35,764.15 C93.44,740.51 116.5208,719.6057 140.5708,697.8157" fill="none" id="Admin-to-User" style="stroke:#181818;stroke-width:1;"/><polygon fill="none" points="153.91,685.73,136.5422,693.3693,144.5993,702.2621,153.91,685.73" style="stroke:#181818;stroke-width:1;"/></g><!--link User to UC1--><g class="link" data-entity-1="User" data-entity-2="UC1" data-source-line="56" data-uid="lnk30" id="link_User_UC1"><path d="M206.08,636.21 C217.47,625.16 231.6,612.88 246,604 C306.3,566.79 379.5676,544.4889 429.5176,532.0589" fill="none" id="User-to-UC1" style="stroke:#181818;stroke-width:1;"/><polygon fill="#181818" points="435.34,530.61,425.6404,528.9017,430.488,531.8174,427.5723,536.665,435.34,530.61" style="stroke:#181818;stroke-width:1;"/></g><!--link User to UC2--><g class="link" data-entity-1="User" data-entity-2="UC2" data-source-line="57" data-uid="lnk31" id="link_User_UC2"><path d="M206.16,690.02 C217.68,701.56 231.88,714.71 246,725 C319.95,778.88 413.5593,823.0883 456.5893,842.2583" fill="none" id="User-to-UC2" style="stroke:#181818;stroke-width:1;"/><polygon fill="#181818" points="462.07,844.7,455.4767,837.3837,457.5027,842.6653,452.2211,844.6913,462.07,844.7" style="stroke:#181818;stroke-width:1;"/></g><!--link User to UC3--><g class="link" data-entity-1="User" data-entity-2="UC3" data-source-line="58" data-uid="lnk32" id="link_User_UC3"><path d="M206.25,676.82 C218.01,682.69 232.39,689.07 246,693 C318.31,713.88 401.097,720.4396 446.917,722.6596" fill="none" id="User-to-UC3" style="stroke:#181818;stroke-width:1;"/><polygon fill="#181818" points="452.91,722.95,444.1141,718.5191,447.9159,722.708,443.727,726.5098,452.91,722.95" style="stroke:#181818;stroke-width:1;"/></g><!--link User to UC4--><g class="link" data-entity-1="User" data-entity-2="UC4" data-source-line="59" data-uid="lnk33" id="link_User_UC4"><path d="M206.01,659.69 C247.13,654.26 324.9718,643.9667 389.7718,635.3967" fill="none" id="User-to-UC4" style="stroke:#181818;stroke-width:1;"/><polygon fill="#181818" points="395.72,634.61,386.2732,631.8245,390.7632,635.2656,387.3221,639.7555,395.72,634.61" style="stroke:#181818;stroke-width:1;"/></g><!--link UC3 to UC2--><g class="link" data-entity-1="UC3" data-entity-2="UC2" data-source-line="60" data-uid="lnk34" id="link_UC3_UC2"><path d="M484.5,742.09 C484.5,767.06 484.5,805.79 484.5,830.47" fill="none" id="UC3-to-UC2" style="stroke:#181818;stroke-width:1;stroke-dasharray:7,7;"/><polygon fill="#181818" points="484.5,836.47,488.5,827.47,484.5,831.47,480.5,827.47,484.5,836.47" style="stroke:#181818;stroke-width:1;"/><text fill="#000000" font-family="sans-serif" font-size="12" lengthAdjust="spacing" textLength="58.1602" x="435" y="793.8887">«include»</text></g><!--link Teacher to UCTEACHER--><g class="link" data-entity-1="Teacher" data-entity-2="UCTEACHER" data-source-line="62" data-uid="lnk35" id="link_Teacher_UCTEACHER"><path d="M73.31,551.3 C155.69,517.1 345.4786,438.3006 433.5386,401.7406" fill="none" id="Teacher-to-UCTEACHER" style="stroke:#181818;stroke-width:1;"/><polygon fill="#181818" points="439.08,399.44,429.2341,399.1967,434.4622,401.3572,432.3017,406.5852,439.08,399.44" style="stroke:#181818;stroke-width:1;"/></g><!--link UCTEACHER to UC2--><g class="link" data-entity-1="UCTEACHER" data-entity-2="UC2" data-source-line="63" data-uid="lnk36" id="link_UCTEACHER_UC2"><path d="M438.94,399.33 C405.24,415.12 360.74,441.08 334,477 C284.48,543.53 294.44,574.36 283,656.5 C275.26,712.08 293.04,733.65 334,772 C372.45,807.99 424.0749,831.2533 455.7349,843.5133" fill="none" id="UCTEACHER-to-UC2" style="stroke:#181818;stroke-width:1;stroke-dasharray:7,7;"/><polygon fill="#181818" points="461.33,845.68,454.3817,838.6999,456.6674,843.8745,451.4929,846.1601,461.33,845.68" style="stroke:#181818;stroke-width:1;"/><text fill="#000000" font-family="sans-serif" font-size="12" lengthAdjust="spacing" textLength="58.1602" x="257" y="678.6387">«include»</text></g><!--link UCTEACHER to UC6--><g class="link" data-entity-1="UCTEACHER" data-entity-2="UC6" data-source-line="64" data-uid="lnk37" id="link_UCTEACHER_UC6"><path d="M502.78,360.24 C533.15,324.78 599.43,251.93 668,206 C687.63,192.85 705.387,183.9007 726.487,175.0507" fill="none" id="UCTEACHER-to-UC6" style="stroke:#181818;stroke-width:1;"/><polygon fill="#181818" points="732.02,172.73,722.1733,172.5224,727.4092,174.6639,725.2676,179.8998,732.02,172.73" style="stroke:#181818;stroke-width:1;"/></g><!--link UCTEACHER to UC7--><g class="link" data-entity-1="UCTEACHER" data-entity-2="UC7" data-source-line="65" data-uid="lnk38" id="link_UCTEACHER_UC7"><path d="M577.19,379.81 C605.91,379.43 632.0805,379.0886 662.6305,378.6886" fill="none" id="UCTEACHER-to-UC7" style="stroke:#181818;stroke-width:1;"/><polygon fill="#181818" points="668.63,378.61,659.5784,374.7282,663.6304,378.6755,659.6831,382.7275,668.63,378.61" style="stroke:#181818;stroke-width:1;"/></g><!--link UCTEACHER to UC8--><g class="link" data-entity-1="UCTEACHER" data-entity-2="UC8" data-source-line="66" data-uid="lnk39" id="link_UCTEACHER_UC8"><path d="M532.46,362.95 C586.21,342.29 668.7493,310.5623 727.2993,288.0623" fill="none" id="UCTEACHER-to-UC8" style="stroke:#181818;stroke-width:1;"/><polygon fill="#181818" points="732.9,285.91,723.0641,285.4046,728.2328,287.7036,725.9338,292.8722,732.9,285.91" style="stroke:#181818;stroke-width:1;"/></g><!--link Admin to UCADMIN--><g class="link" data-entity-1="Admin" data-entity-2="UCADMIN" data-source-line="68" data-uid="lnk40" id="link_Admin_UCADMIN"><path d="M67,832.66 C155.13,943.61 398.2983,1249.7317 463.6983,1332.0717" fill="none" id="Admin-to-UCADMIN" style="stroke:#181818;stroke-width:1;"/><polygon fill="#181818" points="467.43,1336.77,464.9646,1327.2347,464.3202,1332.8547,458.7002,1332.2103,467.43,1336.77" style="stroke:#181818;stroke-width:1;"/></g><!--link UCADMIN to UC2--><g class="link" data-entity-1="UCADMIN" data-entity-2="UC2" data-source-line="69" data-uid="lnk41" id="link_UCADMIN_UC2"><path d="M484.5,1336.34 C484.5,1253.8 484.5,954.4 484.5,877.61" fill="none" id="UCADMIN-to-UC2" style="stroke:#181818;stroke-width:1;stroke-dasharray:7,7;"/><polygon fill="#181818" points="484.5,871.61,480.5,880.61,484.5,876.61,488.5,880.61,484.5,871.61" style="stroke:#181818;stroke-width:1;"/><text fill="#000000" font-family="sans-serif" font-size="12" lengthAdjust="spacing" textLength="58.1602" x="435" y="1108.6387">«include»</text></g><!--link UCADMIN to UC9--><g class="link" data-entity-1="UCADMIN" data-entity-2="UC9" data-source-line="70" data-uid="lnk42" id="link_UCADMIN_UC9"><path d="M515.98,1338.21 C551.81,1316.43 613.32,1279.94 668,1252 C690.58,1240.46 710.5489,1231.1983 732.5289,1221.5183" fill="none" id="UCADMIN-to-UC9" style="stroke:#181818;stroke-width:1;"/><polygon fill="#181818" points="738.02,1219.1,728.1712,1219.0667,733.4441,1221.1152,731.3956,1226.3881,738.02,1219.1" style="stroke:#181818;stroke-width:1;"/></g><!--link UCADMIN to UC10--><g class="link" data-entity-1="UCADMIN" data-entity-2="UC10" data-source-line="71" data-uid="lnk43" id="link_UCADMIN_UC10"><path d="M497.83,1336.52 C524.15,1294.35 589.85,1197 668,1140 C689.8,1124.1 711.6109,1114.1635 735.2009,1105.8535" fill="none" id="UCADMIN-to-UC10" style="stroke:#181818;stroke-width:1;"/><polygon fill="#181818" points="740.86,1103.86,731.0423,1103.0775,736.1441,1105.5213,733.7003,1110.6231,740.86,1103.86" style="stroke:#181818;stroke-width:1;"/></g><!--link UCADMIN to UC11--><g class="link" data-entity-1="UCADMIN" data-entity-2="UC11" data-source-line="72" data-uid="lnk44" id="link_UCADMIN_UC11"><path d="M491.92,1336.35 C510.27,1280.53 568.16,1124.95 668,1038 C687.94,1020.64 708.97,1010.7134 732.55,1002.9634" fill="none" id="UCADMIN-to-UC11" style="stroke:#181818;stroke-width:1;"/><polygon fill="#181818" points="738.25,1001.09,728.451,1000.1001,733.5,1002.6512,730.9489,1007.7001,738.25,1001.09" style="stroke:#181818;stroke-width:1;"/></g><!--link UCADMIN to UC12--><g class="link" data-entity-1="UCADMIN" data-entity-2="UC12" data-source-line="73" data-uid="lnk45" id="link_UCADMIN_UC12"><path d="M486.71,1377.49 C492.33,1454.61 522.24,1730.84 668,1885 C686.37,1904.43 707.4986,1914.8828 731.5586,1922.4828" fill="none" id="UCADMIN-to-UC12" style="stroke:#181818;stroke-width:1;"/><polygon fill="#181818" points="737.28,1924.29,729.9028,1917.7649,732.5122,1922.784,727.4931,1925.3934,737.28,1924.29" style="stroke:#181818;stroke-width:1;"/></g><!--link UCADMIN to UC13--><g class="link" data-entity-1="UCADMIN" data-entity-2="UC13" data-source-line="74" data-uid="lnk46" id="link_UCADMIN_UC13"><path d="M488.7,1377.93 C500.14,1445.89 545.09,1662.93 668,1784 C686.39,1802.11 706.4086,1812.1904 729.6886,1819.9604" fill="none" id="UCADMIN-to-UC13" style="stroke:#181818;stroke-width:1;"/><polygon fill="#181818" points="735.38,1821.86,728.1093,1815.2164,730.6372,1820.277,725.5766,1822.8049,735.38,1821.86" style="stroke:#181818;stroke-width:1;"/></g><!--link UCADMIN to UC14--><g class="link" data-entity-1="UCADMIN" data-entity-2="UC14" data-source-line="75" data-uid="lnk47" id="link_UCADMIN_UC14"><path d="M491.69,1377.65 C509.64,1434.25 566.98,1593.57 668,1683 C688.11,1700.81 709.5865,1711.0169 733.4065,1718.9369" fill="none" id="UCADMIN-to-UC14" style="stroke:#181818;stroke-width:1;"/><polygon fill="#181818" points="739.1,1720.83,731.8217,1714.1947,734.3554,1719.2524,729.2977,1721.7861,739.1,1720.83" style="stroke:#181818;stroke-width:1;"/></g><!--link UCADMIN to UC15--><g class="link" data-entity-1="UCADMIN" data-entity-2="UC15" data-source-line="76" data-uid="lnk48" id="link_UCADMIN_UC15"><path d="M497.05,1377.27 C522.61,1420.49 588.07,1522.6 668,1582 C690.5,1598.72 713.5843,1609.0242 737.7943,1617.3242" fill="none" id="UCADMIN-to-UC15" style="stroke:#181818;stroke-width:1;"/><polygon fill="#181818" points="743.47,1619.27,736.2536,1612.5674,738.7402,1617.6485,733.6592,1620.1351,743.47,1619.27" style="stroke:#181818;stroke-width:1;"/></g><!--link UCADMIN to UC16--><g class="link" data-entity-1="UCADMIN" data-entity-2="UC16" data-source-line="77" data-uid="lnk49" id="link_UCADMIN_UC16"><path d="M514.65,1375.9 C550.22,1398.64 612.49,1437.45 668,1467 C690,1478.71 709.3233,1488.025 730.9533,1497.915" fill="none" id="UCADMIN-to-UC16" style="stroke:#181818;stroke-width:1;"/><polygon fill="#181818" points="736.41,1500.41,729.8883,1493.0298,731.8628,1498.3309,726.5617,1500.3053,736.41,1500.41" style="stroke:#181818;stroke-width:1;"/></g><!--link UCADMIN to UC17--><g class="link" data-entity-1="UCADMIN" data-entity-2="UC17" data-source-line="78" data-uid="lnk50" id="link_UCADMIN_UC17"><path d="M549.11,1367.98 C591.17,1375.24 641.2273,1383.8902 688.8873,1392.1102" fill="none" id="UCADMIN-to-UC17" style="stroke:#181818;stroke-width:1;"/><polygon fill="#181818" points="694.8,1393.13,686.6108,1387.6585,689.8727,1392.2802,685.2511,1395.5421,694.8,1393.13" style="stroke:#181818;stroke-width:1;"/></g><!--link UCADMIN to UC18--><g class="link" data-entity-1="UCADMIN" data-entity-2="UC18" data-source-line="79" data-uid="lnk51" id="link_UCADMIN_UC18"><path d="M548.74,1345.67 C605.96,1335.42 683.2342,1321.5788 736.1142,1312.0988" fill="none" id="UCADMIN-to-UC18" style="stroke:#181818;stroke-width:1;"/><polygon fill="#181818" points="742.02,1311.04,732.4554,1308.6909,737.0985,1311.9223,733.8671,1316.5654,742.02,1311.04" style="stroke:#181818;stroke-width:1;"/></g><!--SRC=[XLHDRzim3BtxLn2vxDIXJj8a7Ge3NfPr0zgXwCVkgisuH1J9a-GMJTV_FibgObLECo20myVtH58anN5fm4XGL3qOA4bXOKYA9D4h4ZLJR0qrArQimXlpp16SducAOq1eD1PC8xma05yjkLAo4ULSSgc0ktEVaNFvvBnIbQYyvvvRgiM-Is5kQ8EGZfFNu5HM6CjwES38bP9FdNFuBkUo9551UXo0GfQeiOP922ecLWwS7IU93tcdKRtzlKLMFEoil5oJlPat48wE_cQUt3e2EzdT4kIFyeBLHjQs4bjAvnZCcIOeFpLQGY7NZQ11MopihlDkdWBJCBZ6YhHHR6FxWeE8Ccmf5x8Y4Rj6MvTiJEmRjxxVf1l6QRDX2k5gRjklQodedZWvmMkKyPL28OtF0yvHe68S-rdVBlBvZyLr6s6_919CGghFfBRtksIw80PICKKirapx1THArehSTnUJOjcibUL2D9nt6XPgS5_fvwZDVyhElrt-_DKUtoT7r5EVHMsZFxeiLDXXO6wQOabwx3LLHOseq8fuErOzdf-PIrdIaWhsCSyFpeAJ3NQ0Dkg5bSKALOytxeNTppk9m-wdJVhjDOqnbd-ul-aqQl0VUu0cjsfnYz_9PbtZhAWnACns1UpFBRLTxymnGsCO6gFG62Tk_pwt9FW2PsSa2jwKc6NX-v5rsv9qUxDNrRczRD93fZrabknUfcmxeCbsK3-8ufrUS1hPzZ6DW3G6XZ4mYe5n39p4m2G6fZ4m-mS0]--></g></svg>